<?xml version="1.0" encoding="UTF-8"?>
<!DOCTYPE svg PUBLIC "-//W3C//DTD SVG 1.1//EN" "http://www.w3.org/Graphics/SVG/1.1/DTD/svg11.dtd">
<!-- Creator: CorelDRAW X6 -->
<svg xmlns="http://www.w3.org/2000/svg" xml:space="preserve" width="72.7197mm" height="20.5922mm" version="1.1" style="shape-rendering:geometricPrecision; text-rendering:geometricPrecision; image-rendering:optimizeQuality; fill-rule:evenodd; clip-rule:evenodd"
viewBox="0 0 7292 2065"
 xmlns:xlink="http://www.w3.org/1999/xlink">
 <defs>
  <style type="text/css">
   <![CDATA[
    .fil0 {fill:#00A0E3;fill-rule:nonzero}
    .fil1 {fill:#2B2A29;fill-rule:nonzero}
   ]]>
  </style>
 </defs>
 <g id="Warstwa_x0020_1">
  <metadata id="CorelCorpID_0Corel-Layer"/>
  <g id="_219971440">
   <path class="fil0" d="M1757 935c1,-9 2,-20 4,-33 2,-12 3,-26 4,-39 1,-14 2,-27 2,-41 1,-13 1,-25 1,-35 0,-7 0,-14 -1,-23 -1,-9 -3,-17 -6,-26 -3,-8 -8,-15 -15,-21 -7,-5 -16,-8 -29,-8 -22,0 -41,9 -59,27 -18,18 -34,42 -48,71 -14,29 -26,63 -37,101 -10,37 -19,76 -26,114 -7,39 -13,77 -16,114 -4,37 -5,69 -5,97 0,8 0,19 1,31 1,13 3,25 8,37 5,12 11,23 20,31 9,9 21,13 38,13 27,0 54,-15 80,-45 26,-30 45,-80 59,-150l-105 0 19 -84 323 0 -121 599c137,-175 218,-395 218,-634 0,-114 -19,-223 -52,-325l-44 228 -211 0z"/>
   <path class="fil0" d="M1797 1351c-22,25 -47,46 -77,64 -29,17 -68,26 -115,26 -36,0 -72,-6 -105,-18 -34,-12 -63,-31 -90,-57 -26,-26 -47,-61 -63,-103 -11,-31 -19,-66 -22,-106l-59 275 -292 0 -138 -574 -122 574 -558 0c156,372 524,634 953,634 216,0 417,-67 583,-180l110 -534 -5 0z"/>
   <path class="fil0" d="M548 1326l146 -689 298 0 131 581 123 -581 115 0 -43 198c14,-24 30,-46 49,-66 40,-44 90,-80 150,-106 60,-26 129,-39 209,-39 61,0 115,7 161,21 42,13 82,28 120,44 -141,-401 -524,-689 -974,-689 -155,0 -301,34 -433,95l-258 1231 207 0z"/>
   <path class="fil0" d="M0 1032c0,122 21,239 60,348l221 -1056c-174,185 -281,434 -281,708z"/>
   <path class="fil1" d="M2877 858c0,15 -2,29 -7,41 -4,12 -11,23 -18,32 -8,9 -17,18 -27,25 -10,7 -22,14 -34,20 6,2 13,5 20,10 8,4 15,11 23,18 7,8 13,18 18,30 5,12 7,27 7,45 0,23 -5,45 -15,65 -10,20 -25,37 -44,51 -20,14 -44,26 -72,34 -28,8 -61,12 -98,12l-232 0 106 -497 206 0c20,0 41,1 61,4 20,3 38,8 54,17 16,8 29,20 39,35 10,15 15,34 15,57zm-213 95c11,0 21,-3 29,-10 8,-7 15,-15 20,-25 5,-10 9,-21 12,-33 3,-12 4,-22 4,-32 0,-15 -4,-28 -11,-39 -7,-11 -18,-16 -33,-16l-23 0 -34 155 36 0zm-56 239c16,0 29,-4 39,-13 10,-9 19,-20 26,-33 7,-13 12,-27 14,-41 3,-14 4,-27 4,-38 0,-18 -4,-33 -11,-43 -8,-11 -20,-16 -36,-16l-29 0 -38 185 31 0zm362 -447l329 0 -13 59 -160 0 -33 151 134 0 -13 59 -134 0 -36 167 160 0 -12 60 -329 0 106 -497zm573 144c2,-8 2,-19 2,-32 0,-8 -1,-16 -2,-23 -1,-8 -3,-14 -5,-20 -3,-6 -7,-11 -12,-14 -5,-3 -12,-5 -20,-5 -9,0 -18,2 -26,6 -8,4 -15,10 -21,16 -6,7 -11,14 -14,23 -3,9 -5,18 -5,27 0,14 4,24 11,31 7,7 16,13 28,18 11,5 25,9 39,12 15,3 30,7 45,11 13,4 26,8 39,14 13,6 25,13 35,23 10,10 18,22 25,38 6,15 9,35 9,57 0,33 -7,60 -20,83 -13,22 -31,41 -54,55 -23,14 -50,24 -82,31 -32,6 -66,9 -103,9 -38,0 -68,-2 -92,-7 -24,-5 -42,-10 -56,-16 -16,-7 -28,-15 -36,-23l27 -107 138 0c-1,5 -1,11 -2,19 -1,8 -1,14 -1,19 0,6 1,13 2,20 2,7 4,13 7,19 3,6 8,10 14,14 6,4 14,5 23,5 10,0 20,-2 28,-7 8,-5 15,-11 20,-18 5,-7 10,-15 13,-23 3,-9 4,-17 4,-25 0,-11 -3,-21 -8,-29 -5,-8 -13,-14 -22,-20 -9,-5 -20,-10 -32,-14 -12,-4 -25,-8 -38,-12 -13,-4 -26,-8 -40,-13 -14,-5 -26,-13 -38,-22 -11,-9 -21,-21 -29,-36 -8,-14 -11,-33 -11,-55 0,-33 8,-61 25,-84 17,-23 38,-41 64,-55 26,-14 54,-24 85,-30 31,-6 60,-9 88,-9 37,0 68,4 94,13 26,9 46,19 60,30l-29 109 -130 0zm608 -84l-126 0 -93 437 -169 0 93 -437 -124 0 14 -59 419 0 -13 59zm300 223c16,0 29,-7 40,-20 11,-13 20,-29 27,-48 7,-19 12,-38 15,-59 3,-20 5,-38 5,-53 0,-14 -2,-26 -7,-36 -5,-10 -15,-14 -31,-14l-35 0 -49 229 36 0zm-47 50l-35 164 -169 0 106 -497 181 0c30,0 57,2 81,5 25,3 46,9 63,19 18,9 32,23 41,40 10,17 15,41 15,70 0,27 -4,53 -13,77 -9,24 -22,45 -41,63 -19,18 -44,32 -74,43 -30,10 -67,16 -110,16l-45 0zm659 164l-183 0 -11 -124 -145 0 -56 124 -76 0 231 -497 185 0 54 497zm-313 -181l113 0 -18 -213 -95 213zm818 -197c0,31 -9,59 -26,85 -17,26 -46,46 -85,59l91 234 -174 0 -69 -217 -9 0 -46 217 -169 0 106 -497 206 0c24,0 47,1 68,4 21,3 40,9 56,17 16,9 29,21 38,36 9,15 14,36 14,61zm-225 112c14,0 25,-5 35,-14 10,-9 17,-20 23,-33 6,-13 10,-27 13,-42 3,-15 4,-28 4,-39 0,-14 -2,-25 -7,-35 -5,-10 -15,-14 -31,-14l-35 0 -39 177 37 0zm665 -171l-126 0 -93 437 -169 0 93 -437 -124 0 14 -59 418 0 -13 59zm355 437l-183 0 -87 -359 -77 359 -70 0 106 -497 187 0 82 364 77 -364 72 0 -107 497zm173 -497l329 0 -13 59 -160 0 -33 151 134 0 -13 59 -134 0 -36 167 160 0 -12 60 -329 0 106 -497zm756 118c0,31 -9,59 -26,85 -17,26 -46,46 -85,59l91 234 -174 0 -69 -217 -9 0 -46 217 -169 0 106 -497 206 0c24,0 47,1 68,4 21,3 40,9 56,17 16,9 29,21 38,36 9,15 14,36 14,61zm-225 112c14,0 25,-5 35,-14 10,-9 17,-20 23,-33 6,-13 10,-27 13,-42 3,-15 4,-28 4,-39 0,-14 -2,-25 -7,-35 -5,-10 -15,-14 -31,-14l-35 0 -39 177 37 0z"/>
   <path class="fil1" d="M5690 1629c0,32 -11,57 -32,75 -21,18 -50,28 -87,28 -32,0 -58,-7 -77,-20l0 -62c28,16 54,25 78,25 16,0 29,-3 38,-10 9,-6 14,-15 14,-26 0,-7 -1,-12 -3,-17 -2,-5 -5,-10 -8,-14 -4,-4 -13,-12 -27,-23 -20,-15 -34,-30 -42,-45 -8,-15 -12,-30 -12,-47 0,-20 5,-37 13,-52 9,-15 22,-27 38,-36 17,-9 36,-13 57,-13 31,0 60,8 86,22l-24 53c-23,-11 -43,-17 -63,-17 -12,0 -22,3 -30,10 -8,7 -11,16 -11,27 0,9 2,17 7,24 5,7 15,16 32,27 18,12 31,25 39,40 9,15 13,32 13,51zm207 -161c21,0 38,8 50,24 12,16 18,39 18,68 0,29 -5,57 -15,84 -10,27 -23,48 -41,64 -17,16 -36,24 -57,24 -12,0 -22,-3 -31,-8 -9,-6 -17,-15 -24,-29l-2 0c-2,24 -5,46 -9,67l-16 77 -65 0 74 -366 50 0 -4 39 2 0c20,-29 43,-43 69,-43zm-26 55c-10,0 -19,5 -28,15 -9,10 -17,24 -22,41 -6,17 -8,36 -8,56 0,12 3,22 8,29 5,7 13,11 22,11 10,0 19,-5 28,-16 9,-10 16,-25 21,-43 5,-18 8,-36 8,-54 0,-27 -9,-40 -28,-40zm120 177c0,-14 4,-25 12,-33 8,-8 19,-12 33,-12 10,0 18,3 24,9 6,6 9,14 9,24 0,13 -4,24 -12,32 -8,8 -18,12 -31,12 -11,0 -19,-3 -25,-9 -6,-6 -9,-14 -9,-24zm399 26l-172 0 8 -41 125 -160 -86 0 11 -53 163 0 -9 45 -123 156 95 0 -11 53zm330 -158c0,-30 -10,-45 -31,-45 -11,0 -20,5 -29,14 -9,9 -16,23 -21,41 -5,18 -8,36 -8,55 0,28 11,42 33,42 11,0 21,-5 29,-14 9,-9 15,-22 20,-39 5,-17 7,-35 7,-54zm66 0c0,32 -5,60 -15,85 -10,25 -25,44 -44,57 -19,14 -42,20 -68,20 -28,0 -51,-9 -68,-27 -17,-18 -25,-41 -25,-71 0,-32 5,-61 15,-86 10,-25 25,-45 45,-59 20,-14 42,-21 69,-21 28,0 51,9 67,27 17,18 25,42 25,74zm25 132c0,-14 4,-25 12,-33 8,-8 19,-12 33,-12 10,0 18,3 24,9 6,6 9,14 9,24 0,13 -4,24 -12,32 -8,8 -18,12 -31,12 -10,0 -19,-3 -25,-9 -6,-6 -9,-14 -9,-24zm296 -132c0,-30 -10,-45 -31,-45 -11,0 -21,5 -29,14 -9,9 -16,23 -21,41 -5,18 -8,36 -8,55 0,28 11,42 33,42 11,0 21,-5 29,-14 9,-9 15,-22 20,-39 5,-17 7,-35 7,-54zm66 0c0,32 -5,60 -15,85 -10,25 -25,44 -44,57 -19,14 -42,20 -68,20 -28,0 -51,-9 -68,-27 -17,-18 -25,-41 -25,-71 0,-32 5,-61 15,-86 10,-25 25,-45 45,-59 20,-14 42,-21 69,-21 28,0 51,9 67,27 17,18 25,42 25,74zm25 132c0,-14 4,-25 12,-33 8,-8 19,-12 33,-12 10,0 18,3 24,9 6,6 9,14 9,24 0,13 -4,24 -12,32 -8,8 -18,12 -31,12 -10,0 -19,-3 -25,-9 -6,-6 -9,-14 -9,-24z"/>
  </g>
 </g>
</svg>
